<svg  viewBox="0 0 24 24" fill="none" xmlns="http://www.w3.org/2000/svg">
<path d="M20.483 2.98596C20.12 2.89696 19.7074 2.91097 19.2018 3.04798C16.2726 3.84198 4.62866 7.62596 3.67046 8.04996C2.62616 8.51196 2.02356 9.32596 2.01426 10.394C2.00186 11.822 3.15286 12.943 4.51426 12.895C4.55806 12.894 6.24256 12.917 7.20176 12.927C7.20176 12.927 8.05796 17.208 8.07866 17.259C8.32856 17.873 8.91476 18.056 9.42046 17.835L12.2643 16.584C12.5862 16.901 14.7506 18.992 14.983 19.179C15.6756 19.735 16.2741 19.91 17.0143 19.929C18.206 19.96 19.247 19.259 19.7955 18.116C20.1398 17.399 21.7445 7.35798 21.8893 6.36197C22.1192 4.78097 22.0672 4.15997 21.4205 3.51697C21.1606 3.25897 20.8461 3.07396 20.483 2.98596ZM20.0142 4.92496C20.0142 4.92496 20.0628 5.10196 19.9205 6.07996C19.4114 9.58196 18.2049 16.747 17.9518 17.334C17.7789 17.736 17.4324 17.939 17.0455 17.928C16.705 17.919 16.5355 17.859 16.233 17.616C16.0774 17.491 15.3773 16.826 14.3893 15.865C14.3769 15.853 12.4187 13.942 12.4187 13.942C12.2278 13.752 12.0484 13.639 11.6725 13.635C11.4539 13.635 11.1654 13.801 11.1654 13.801L9.66156 15.074L9.13926 12.52L15.4205 9.83198C15.9279 9.61398 16.17 9.02596 15.9518 8.51896C15.7337 8.01096 15.1467 7.76898 14.6393 7.98698L7.82676 10.926C7.43886 10.924 4.54836 10.891 4.45176 10.895C4.22926 10.902 4.01176 10.684 4.01426 10.394C4.01626 10.162 4.11856 10.024 4.48296 9.86299C5.32756 9.48898 16.8309 5.75796 19.6701 4.98896C19.9379 4.91596 20.0142 4.92496 20.0142 4.92496Z" fill="#2A343D"/>
</svg>
