<svg width="41" height="40" viewBox="0 0 41 40" fill="none" xmlns="http://www.w3.org/2000/svg">
    <path d="M27.4419 5.34C26.1473 4.714 24.763 4.25905 23.3157 4C23.138 4.33209 22.9304 4.77877 22.7872 5.1341C21.2487 4.89499 19.7245 4.89499 18.2143 5.1341C18.0712 4.77877 17.8588 4.33209 17.6795 4C16.2307 4.25905 14.8448 4.71567 13.5502 5.34331C10.9389 9.42136 10.231 13.3981 10.5849 17.3184C12.3169 18.655 13.9953 19.467 15.6455 19.9984C16.0529 19.4189 16.4163 18.8028 16.7293 18.1536C16.1331 17.9195 15.5621 17.6306 15.0226 17.2952C15.1657 17.1856 15.3057 17.071 15.441 16.9531C18.7318 18.5438 22.3074 18.5438 25.5589 16.9531C25.6958 17.071 25.8358 17.1856 25.9774 17.2952C25.4362 17.6322 24.8637 17.9211 24.2675 18.1553C24.5805 18.8028 24.9423 19.4205 25.3513 20C27.003 19.4687 28.683 18.6567 30.415 17.3184C30.8303 12.7738 29.7056 8.83355 27.4419 5.34ZM17.1776 14.9075C16.1898 14.9075 15.3796 13.9543 15.3796 12.7937C15.3796 11.6331 16.1725 10.6783 17.1776 10.6783C18.1829 10.6783 18.993 11.6314 18.9757 12.7937C18.9772 13.9543 18.1829 14.9075 17.1776 14.9075ZM23.8223 14.9075C22.8344 14.9075 22.0243 13.9543 22.0243 12.7937C22.0243 11.6331 22.8171 10.6783 23.8223 10.6783C24.8275 10.6783 25.6376 11.6314 25.6203 12.7937C25.6203 13.9543 24.8275 14.9075 23.8223 14.9075Z" fill="#FDFCFC" />
    <path d="M8.58 34.692C8.58 35.336 8.476 35.922 8.268 36.45C8.064 36.978 7.774 37.432 7.398 37.812C7.022 38.188 6.572 38.48 6.048 38.688C5.524 38.896 4.942 39 4.302 39H1.062V30.384H4.302C4.942 30.384 5.524 30.488 6.048 30.696C6.572 30.904 7.022 31.198 7.398 31.578C7.774 31.954 8.064 32.408 8.268 32.94C8.476 33.468 8.58 34.052 8.58 34.692ZM7.272 34.692C7.272 34.18 7.202 33.722 7.062 33.318C6.922 32.91 6.722 32.566 6.462 32.286C6.206 32.002 5.894 31.786 5.526 31.638C5.162 31.49 4.754 31.416 4.302 31.416H2.346V37.968H4.302C4.754 37.968 5.162 37.894 5.526 37.746C5.894 37.598 6.206 37.384 6.462 37.104C6.722 36.82 6.922 36.476 7.062 36.072C7.202 35.668 7.272 35.208 7.272 34.692ZM11.0577 32.904V39H9.88772V32.904H11.0577ZM11.2797 31.02C11.2797 31.128 11.2577 31.232 11.2137 31.332C11.1697 31.428 11.1097 31.514 11.0337 31.59C10.9617 31.662 10.8757 31.72 10.7757 31.764C10.6757 31.804 10.5717 31.824 10.4637 31.824C10.3557 31.824 10.2537 31.804 10.1577 31.764C10.0617 31.72 9.97572 31.662 9.89972 31.59C9.82772 31.514 9.76972 31.428 9.72572 31.332C9.68572 31.232 9.66572 31.128 9.66572 31.02C9.66572 30.908 9.68572 30.804 9.72572 30.708C9.76972 30.608 9.82772 30.522 9.89972 30.45C9.97572 30.374 10.0617 30.316 10.1577 30.276C10.2537 30.232 10.3557 30.21 10.4637 30.21C10.5717 30.21 10.6757 30.232 10.7757 30.276C10.8757 30.316 10.9617 30.374 11.0337 30.45C11.1097 30.522 11.1697 30.608 11.2137 30.708C11.2577 30.804 11.2797 30.908 11.2797 31.02ZM16.3457 33.954C16.3137 34.006 16.2797 34.044 16.2437 34.068C16.2077 34.088 16.1617 34.098 16.1057 34.098C16.0417 34.098 15.9697 34.076 15.8897 34.032C15.8137 33.988 15.7197 33.94 15.6077 33.888C15.4997 33.836 15.3717 33.788 15.2237 33.744C15.0757 33.7 14.8997 33.678 14.6957 33.678C14.5277 33.678 14.3737 33.7 14.2337 33.744C14.0977 33.784 13.9817 33.842 13.8857 33.918C13.7897 33.99 13.7157 34.078 13.6637 34.182C13.6117 34.282 13.5857 34.39 13.5857 34.506C13.5857 34.658 13.6297 34.784 13.7177 34.884C13.8097 34.984 13.9277 35.07 14.0717 35.142C14.2197 35.214 14.3857 35.28 14.5697 35.34C14.7577 35.396 14.9477 35.456 15.1397 35.52C15.3357 35.584 15.5257 35.658 15.7097 35.742C15.8977 35.822 16.0637 35.924 16.2077 36.048C16.3557 36.168 16.4737 36.314 16.5617 36.486C16.6537 36.658 16.6997 36.868 16.6997 37.116C16.6997 37.4 16.6477 37.664 16.5437 37.908C16.4437 38.148 16.2937 38.356 16.0937 38.532C15.8977 38.708 15.6537 38.846 15.3617 38.946C15.0697 39.046 14.7357 39.096 14.3597 39.096C13.9397 39.096 13.5517 39.026 13.1957 38.886C12.8397 38.746 12.5417 38.568 12.3017 38.352L12.5777 37.902C12.6097 37.846 12.6497 37.804 12.6977 37.776C12.7457 37.744 12.8097 37.728 12.8897 37.728C12.9657 37.728 13.0437 37.756 13.1237 37.812C13.2037 37.868 13.2997 37.93 13.4117 37.998C13.5237 38.062 13.6597 38.122 13.8197 38.178C13.9797 38.23 14.1797 38.256 14.4197 38.256C14.6197 38.256 14.7937 38.232 14.9417 38.184C15.0897 38.132 15.2117 38.064 15.3077 37.98C15.4077 37.892 15.4817 37.792 15.5297 37.68C15.5777 37.568 15.6017 37.45 15.6017 37.326C15.6017 37.166 15.5557 37.034 15.4637 36.93C15.3757 36.822 15.2577 36.73 15.1097 36.654C14.9657 36.578 14.7997 36.512 14.6117 36.456C14.4237 36.4 14.2317 36.34 14.0357 36.276C13.8397 36.212 13.6477 36.138 13.4597 36.054C13.2717 35.97 13.1037 35.864 12.9557 35.736C12.8117 35.608 12.6937 35.452 12.6017 35.268C12.5137 35.084 12.4697 34.86 12.4697 34.596C12.4697 34.36 12.5177 34.134 12.6137 33.918C12.7137 33.702 12.8557 33.512 13.0397 33.348C13.2277 33.184 13.4577 33.054 13.7297 32.958C14.0057 32.858 14.3197 32.808 14.6717 32.808C15.0757 32.808 15.4397 32.872 15.7637 33C16.0917 33.128 16.3717 33.304 16.6037 33.528L16.3457 33.954ZM22.2385 34.044C22.2025 34.088 22.1665 34.124 22.1305 34.152C22.0985 34.176 22.0505 34.188 21.9865 34.188C21.9225 34.188 21.8545 34.164 21.7825 34.116C21.7145 34.064 21.6265 34.01 21.5185 33.954C21.4145 33.894 21.2865 33.84 21.1345 33.792C20.9865 33.74 20.8025 33.714 20.5825 33.714C20.2945 33.714 20.0405 33.766 19.8205 33.87C19.6005 33.974 19.4165 34.122 19.2685 34.314C19.1245 34.506 19.0145 34.74 18.9385 35.016C18.8625 35.292 18.8245 35.602 18.8245 35.946C18.8245 36.302 18.8645 36.62 18.9445 36.9C19.0245 37.176 19.1385 37.41 19.2865 37.602C19.4345 37.79 19.6145 37.934 19.8265 38.034C20.0385 38.13 20.2745 38.178 20.5345 38.178C20.7865 38.178 20.9945 38.148 21.1585 38.088C21.3225 38.024 21.4585 37.956 21.5665 37.884C21.6745 37.812 21.7645 37.746 21.8365 37.686C21.9085 37.622 21.9825 37.59 22.0585 37.59C22.1545 37.59 22.2285 37.626 22.2805 37.698L22.6165 38.13C22.4765 38.302 22.3185 38.448 22.1425 38.568C21.9705 38.688 21.7865 38.786 21.5905 38.862C21.3945 38.938 21.1885 38.994 20.9725 39.03C20.7605 39.066 20.5445 39.084 20.3245 39.084C19.9445 39.084 19.5885 39.014 19.2565 38.874C18.9285 38.734 18.6425 38.53 18.3985 38.262C18.1585 37.994 17.9685 37.666 17.8285 37.278C17.6885 36.886 17.6185 36.442 17.6185 35.946C17.6185 35.494 17.6805 35.076 17.8045 34.692C17.9325 34.308 18.1185 33.978 18.3625 33.702C18.6105 33.422 18.9145 33.204 19.2745 33.048C19.6345 32.888 20.0465 32.808 20.5105 32.808C20.9465 32.808 21.3305 32.878 21.6625 33.018C21.9945 33.158 22.2905 33.356 22.5505 33.612L22.2385 34.044ZM26.2013 32.808C26.6493 32.808 27.0533 32.882 27.4133 33.03C27.7773 33.174 28.0853 33.384 28.3373 33.66C28.5933 33.932 28.7893 34.262 28.9253 34.65C29.0613 35.034 29.1293 35.466 29.1293 35.946C29.1293 36.426 29.0613 36.86 28.9253 37.248C28.7893 37.636 28.5933 37.966 28.3373 38.238C28.0853 38.51 27.7773 38.72 27.4133 38.868C27.0533 39.012 26.6493 39.084 26.2013 39.084C25.7493 39.084 25.3413 39.012 24.9773 38.868C24.6173 38.72 24.3093 38.51 24.0533 38.238C23.7973 37.966 23.5993 37.636 23.4593 37.248C23.3233 36.86 23.2553 36.426 23.2553 35.946C23.2553 35.466 23.3233 35.034 23.4593 34.65C23.5993 34.262 23.7973 33.932 24.0533 33.66C24.3093 33.384 24.6173 33.174 24.9773 33.03C25.3413 32.882 25.7493 32.808 26.2013 32.808ZM26.2013 38.172C26.7773 38.172 27.2073 37.978 27.4913 37.59C27.7753 37.202 27.9173 36.656 27.9173 35.952C27.9173 35.248 27.7753 34.702 27.4913 34.314C27.2073 33.922 26.7773 33.726 26.2013 33.726C25.6173 33.726 25.1813 33.922 24.8933 34.314C24.6093 34.702 24.4673 35.248 24.4673 35.952C24.4673 36.656 24.6093 37.202 24.8933 37.59C25.1813 37.978 25.6173 38.172 26.2013 38.172ZM31.5393 34.074C31.7353 33.674 31.9713 33.36 32.2473 33.132C32.5233 32.904 32.8553 32.79 33.2433 32.79C33.3753 32.79 33.4993 32.806 33.6153 32.838C33.7353 32.866 33.8393 32.91 33.9273 32.97L33.8493 33.852C33.8213 33.96 33.7553 34.014 33.6513 34.014C33.5953 34.014 33.5113 34.004 33.3993 33.984C33.2873 33.96 33.1673 33.948 33.0393 33.948C32.8513 33.948 32.6853 33.976 32.5413 34.032C32.3973 34.084 32.2673 34.164 32.1513 34.272C32.0393 34.376 31.9393 34.506 31.8513 34.662C31.7633 34.814 31.6813 34.988 31.6053 35.184V39H30.4353V32.904H31.1073C31.2353 32.904 31.3213 32.928 31.3653 32.976C31.4133 33.02 31.4473 33.1 31.4673 33.216L31.5393 34.074ZM38.5489 34.38C38.3569 34.128 38.1489 33.952 37.9249 33.852C37.7049 33.752 37.4569 33.702 37.1809 33.702C36.6449 33.702 36.2289 33.896 35.9329 34.284C35.6409 34.668 35.4949 35.23 35.4949 35.97C35.4949 36.358 35.5269 36.69 35.5909 36.966C35.6589 37.238 35.7549 37.462 35.8789 37.638C36.0069 37.81 36.1629 37.938 36.3469 38.022C36.5309 38.102 36.7389 38.142 36.9709 38.142C37.3109 38.142 37.6049 38.066 37.8529 37.914C38.1009 37.762 38.3329 37.548 38.5489 37.272V34.38ZM39.7249 30.144V39H39.0169C38.8529 39 38.7509 38.922 38.7109 38.766L38.6089 38.064C38.3489 38.372 38.0529 38.62 37.7209 38.808C37.3929 38.992 37.0129 39.084 36.5809 39.084C36.2329 39.084 35.9169 39.016 35.6329 38.88C35.3529 38.744 35.1129 38.546 34.9129 38.286C34.7129 38.022 34.5589 37.696 34.4509 37.308C34.3429 36.92 34.2889 36.474 34.2889 35.97C34.2889 35.518 34.3489 35.098 34.4689 34.71C34.5889 34.322 34.7629 33.986 34.9909 33.702C35.2189 33.418 35.4949 33.196 35.8189 33.036C36.1429 32.872 36.5089 32.79 36.9169 32.79C37.2849 32.79 37.5969 32.85 37.8529 32.97C38.1129 33.09 38.3449 33.26 38.5489 33.48V30.144H39.7249Z" fill="#FDFCFC" />
</svg>
