<svg
          width="25"
          height="24"
          viewBox="0 0 25 24"
          fill="none"
          xmlns="http://www.w3.org/2000/svg"
        >
          <path
            d="M12.334 6.5C16.124 6.5 19.504 8.63 21.154 12C19.504 15.37 16.124 17.5 12.334 17.5C8.54398 17.5 5.16398 15.37 3.51398 12C5.16398 8.63 8.54398 6.5 12.334 6.5ZM12.334 4.5C7.47342 4.5 3.3027 7.43897 1.4846 11.6358C1.38393 11.8681 1.38393 12.1319 1.4846 12.3642C3.3027 16.561 7.47342 19.5 12.334 19.5C17.1946 19.5 21.3653 16.561 23.1834 12.3642C23.284 12.1319 23.284 11.8681 23.1834 11.6358C21.3653 7.43897 17.1946 4.5 12.334 4.5ZM12.334 9.5C13.714 9.5 14.834 10.62 14.834 12C14.834 13.38 13.714 14.5 12.334 14.5C10.954 14.5 9.83398 13.38 9.83398 12C9.83398 10.62 10.954 9.5 12.334 9.5ZM12.334 7.5C9.85398 7.5 7.83398 9.52 7.83398 12C7.83398 14.48 9.85398 16.5 12.334 16.5C14.814 16.5 16.834 14.48 16.834 12C16.834 9.52 14.814 7.5 12.334 7.5Z"
            fill="#0E0C0C"
          />
        </svg>