<svg width="40" height="40" viewBox="0 0 40 40" fill="none" xmlns="http://www.w3.org/2000/svg">
    <path d="M20 2C25.525 2 30 6.58819 30 12.2529C29.9995 14.4012 29.3419 16.4952 28.1198 18.2402C26.8977 19.9852 25.1727 21.2933 23.1875 21.9804C22.6875 22.0829 22.5 21.7625 22.5 21.4934C22.5 21.1474 22.5125 20.0452 22.5125 18.6738C22.5125 17.7126 22.2 17.0975 21.8375 16.777C24.0625 16.5207 26.4 15.6492 26.4 11.7147C26.4 10.5868 26.0125 9.67689 25.375 8.95918C25.475 8.70286 25.825 7.65193 25.275 6.24215C25.275 6.24215 24.4375 5.9602 22.525 7.29308C21.725 7.06239 20.875 6.94704 20.025 6.94704C19.175 6.94704 18.325 7.06239 17.525 7.29308C15.6125 5.97301 14.775 6.24215 14.775 6.24215C14.225 7.65193 14.575 8.70286 14.675 8.95918C14.0375 9.67689 13.65 10.5997 13.65 11.7147C13.65 15.6364 15.975 16.5207 18.2 16.777C17.9125 17.0334 17.65 17.4819 17.5625 18.1484C16.9875 18.4175 15.55 18.8533 14.65 17.3025C14.4625 16.9949 13.9 16.2388 13.1125 16.2516C12.275 16.2644 12.775 16.7386 13.125 16.9308C13.55 17.1743 14.0375 18.0843 14.15 18.3791C14.35 18.9558 15 20.058 17.5125 19.5838C17.5125 20.4425 17.525 21.2499 17.525 21.4934C17.525 21.7625 17.3375 22.0701 16.8375 21.9804C14.8458 21.3007 13.1134 19.9952 11.8861 18.2492C10.6588 16.5031 9.9989 14.4052 10 12.2529C10 6.58819 14.475 2 20 2Z" fill="#FDFCFC"/>
    <path d="M8.594 34.806V38.166C8.158 38.478 7.694 38.712 7.202 38.868C6.71 39.02 6.174 39.096 5.594 39.096C4.898 39.096 4.268 38.988 3.704 38.772C3.144 38.556 2.666 38.254 2.27 37.866C1.874 37.478 1.568 37.014 1.352 36.474C1.14 35.934 1.034 35.34 1.034 34.692C1.034 34.04 1.136 33.444 1.34 32.904C1.548 32.36 1.844 31.896 2.228 31.512C2.612 31.124 3.076 30.824 3.62 30.612C4.168 30.396 4.782 30.288 5.462 30.288C5.806 30.288 6.124 30.314 6.416 30.366C6.712 30.418 6.986 30.492 7.238 30.588C7.49 30.684 7.722 30.8 7.934 30.936C8.15 31.068 8.35 31.218 8.534 31.386L8.168 31.962C8.112 32.054 8.038 32.112 7.946 32.136C7.854 32.16 7.754 32.138 7.646 32.07C7.542 32.01 7.426 31.94 7.298 31.86C7.174 31.78 7.024 31.706 6.848 31.638C6.676 31.57 6.474 31.512 6.242 31.464C6.01 31.416 5.736 31.392 5.42 31.392C4.948 31.392 4.522 31.47 4.142 31.626C3.762 31.778 3.438 31.998 3.17 32.286C2.902 32.574 2.696 32.922 2.552 33.33C2.408 33.734 2.336 34.188 2.336 34.692C2.336 35.22 2.412 35.694 2.564 36.114C2.716 36.53 2.93 36.884 3.206 37.176C3.486 37.464 3.824 37.684 4.22 37.836C4.62 37.988 5.066 38.064 5.558 38.064C5.75 38.064 5.928 38.054 6.092 38.034C6.26 38.01 6.42 37.978 6.572 37.938C6.724 37.898 6.87 37.848 7.01 37.788C7.154 37.728 7.296 37.662 7.436 37.59V35.784H6.164C6.084 35.784 6.018 35.76 5.966 35.712C5.918 35.664 5.894 35.604 5.894 35.532V34.806H8.594ZM11.253 32.904V39H10.083V32.904H11.253ZM11.475 31.02C11.475 31.128 11.453 31.232 11.409 31.332C11.365 31.428 11.305 31.514 11.229 31.59C11.157 31.662 11.071 31.72 10.971 31.764C10.871 31.804 10.767 31.824 10.659 31.824C10.551 31.824 10.449 31.804 10.353 31.764C10.257 31.72 10.171 31.662 10.095 31.59C10.023 31.514 9.96503 31.428 9.92103 31.332C9.88103 31.232 9.86103 31.128 9.86103 31.02C9.86103 30.908 9.88103 30.804 9.92103 30.708C9.96503 30.608 10.023 30.522 10.095 30.45C10.171 30.374 10.257 30.316 10.353 30.276C10.449 30.232 10.551 30.21 10.659 30.21C10.767 30.21 10.871 30.232 10.971 30.276C11.071 30.316 11.157 30.374 11.229 30.45C11.305 30.522 11.365 30.608 11.409 30.708C11.453 30.804 11.475 30.908 11.475 31.02ZM14.855 39.096C14.363 39.096 13.983 38.958 13.715 38.682C13.451 38.406 13.319 38.012 13.319 37.5V33.852H12.611C12.543 33.852 12.485 33.832 12.437 33.792C12.393 33.748 12.371 33.684 12.371 33.6V33.126L13.361 32.988L13.625 31.17C13.641 31.102 13.671 31.05 13.715 31.014C13.763 30.974 13.823 30.954 13.895 30.954H14.489V33H16.217V33.852H14.489V37.422C14.489 37.662 14.547 37.842 14.663 37.962C14.783 38.078 14.935 38.136 15.119 38.136C15.227 38.136 15.319 38.122 15.395 38.094C15.475 38.066 15.543 38.036 15.599 38.004C15.655 37.968 15.703 37.936 15.743 37.908C15.783 37.88 15.819 37.866 15.851 37.866C15.891 37.866 15.921 37.876 15.941 37.896C15.965 37.912 15.989 37.94 16.013 37.98L16.361 38.544C16.169 38.72 15.941 38.856 15.677 38.952C15.413 39.048 15.139 39.096 14.855 39.096ZM24.5907 30.384V39H23.3127V35.118H18.8187V39H17.5347V30.384H18.8187V34.188H23.3127V30.384H24.5907ZM31.4467 32.904V39H30.7447C30.5847 39 30.4807 38.922 30.4327 38.766L30.3487 38.154C30.2167 38.294 30.0787 38.422 29.9347 38.538C29.7907 38.654 29.6367 38.754 29.4727 38.838C29.3087 38.918 29.1347 38.98 28.9507 39.024C28.7667 39.072 28.5687 39.096 28.3567 39.096C28.0207 39.096 27.7247 39.04 27.4687 38.928C27.2167 38.816 27.0047 38.66 26.8327 38.46C26.6607 38.256 26.5307 38.012 26.4427 37.728C26.3547 37.444 26.3107 37.13 26.3107 36.786V32.904H27.4867V36.786C27.4867 37.222 27.5867 37.562 27.7867 37.806C27.9867 38.046 28.2927 38.166 28.7047 38.166C29.0047 38.166 29.2847 38.096 29.5447 37.956C29.8047 37.812 30.0487 37.616 30.2767 37.368V32.904H31.4467ZM34.2498 37.5C34.4418 37.752 34.6498 37.928 34.8738 38.028C35.0978 38.128 35.3418 38.178 35.6058 38.178C36.1498 38.178 36.5678 37.984 36.8598 37.596C37.1558 37.208 37.3038 36.622 37.3038 35.838C37.3038 35.114 37.1738 34.584 36.9138 34.248C36.6538 33.908 36.2858 33.738 35.8098 33.738C35.4738 33.738 35.1818 33.814 34.9338 33.966C34.6898 34.118 34.4618 34.334 34.2498 34.614V37.5ZM34.2498 33.744C34.5018 33.464 34.7878 33.238 35.1078 33.066C35.4278 32.894 35.7918 32.808 36.1998 32.808C36.5558 32.808 36.8758 32.878 37.1598 33.018C37.4478 33.154 37.6918 33.352 37.8918 33.612C38.0918 33.868 38.2458 34.18 38.3538 34.548C38.4618 34.916 38.5158 35.332 38.5158 35.796C38.5158 36.288 38.4538 36.736 38.3298 37.14C38.2098 37.544 38.0358 37.89 37.8078 38.178C37.5838 38.466 37.3098 38.69 36.9858 38.85C36.6618 39.006 36.2978 39.084 35.8938 39.084C35.6978 39.084 35.5178 39.064 35.3538 39.024C35.1898 38.988 35.0378 38.934 34.8978 38.862C34.7618 38.79 34.6358 38.702 34.5198 38.598C34.4038 38.494 34.2938 38.376 34.1898 38.244L34.1358 38.754C34.1038 38.918 34.0038 39 33.8358 39H33.0798V30.144H34.2498V33.744Z" fill="#FDFCFC"/>
</svg>
