<svg viewBox="0 0 24 24" fill="none" xmlns="http://www.w3.org/2000/svg">
<path d="M10.9989 1.95316C9.342 1.95316 7.999 3.29316 7.9989 4.95316V6.01566H6.9989C6.0844 5.97886 4.6808 6.57626 4.1552 8.04696L2.9989 8.01566C2.4466 8.01566 1.9988 8.46236 1.9989 9.01566C1.9989 9.56896 2.4466 10.0162 2.9989 10.0152H3.9989V11.0152H2.9989C2.4466 11.0152 1.9988 11.4622 1.9989 12.0152C1.9989 12.5692 2.4466 13.0152 2.9989 13.0152H3.9989V14.0152H2.9989C2.4466 14.0152 1.9988 14.4622 1.9989 15.0152C1.9989 15.5692 2.4466 16.0162 2.9989 16.0152H3.9989V17.0152H2.9989C2.4466 17.0152 1.9988 17.4622 1.9989 18.0152C1.9989 18.5692 2.4466 19.0162 2.9989 19.0152H3.9989C3.9989 20.6722 5.342 22.0162 6.9989 22.0152H13.9989C15.6558 22.0152 16.9989 20.6722 16.9989 19.0152V18.0152L17.9989 17.9842C19.6558 17.9842 20.9988 16.6442 20.9989 14.9842V4.95316C20.9989 3.29326 19.6557 1.95296 17.9989 1.95316H10.9989ZM17.9989 3.95316C18.5512 3.95316 18.999 4.39986 18.9989 4.95316V14.9532C18.9989 15.5062 18.5512 15.9532 17.9989 15.9532L16.9989 15.9842V9.01566C16.9989 7.35876 15.6558 6.01566 13.9989 6.01566H9.9989V4.98435C9.9989 4.43115 10.4466 3.98435 10.9989 3.98435L17.9989 3.95316ZM6.9989 8.01566H13.9989C14.5512 8.01566 14.9989 8.46336 14.9989 9.01566V17.9842V19.0152C14.9989 19.5682 14.5512 20.0162 13.9989 20.0152H6.9989C6.4466 20.0152 5.9989 19.5682 5.9989 19.0152V17.9842V17.0152V9.01566C5.9989 8.73906 6.0992 8.47776 6.2802 8.29696C6.4611 8.11596 6.7228 8.01566 6.9989 8.01566Z" fill="#2A343D"/>
</svg>
