<svg
              width="78"
              height="24"
              viewBox="0 0 78 24"
              fill="none"
              xmlns="http://www.w3.org/2000/svg"
            >
              <path
                d="M11.4752 14.9162H13.9142L13.4467 11.7808C13.7177 11.6188 13.9313 11.3838 14.0874 11.076C14.2435 10.7681 14.3212 10.4278 14.3207 10.0551C14.3207 9.5204 14.1616 9.06281 13.8435 8.68234C13.5253 8.30188 13.1424 8.11133 12.6947 8.11068C12.247 8.11003 11.8643 8.30059 11.5467 8.68234C11.2291 9.0641 11.0697 9.5217 11.0687 10.0551C11.0687 10.4278 11.1467 10.7681 11.3028 11.076C11.4589 11.3838 11.6722 11.6188 11.9426 11.7808L11.4752 14.9162ZM12.6947 21.7218C9.41747 21.106 7.86246 19.8136 6.6359 17.796C5.40934 15.7783 4.79633 13.5383 4.79688 11.076V5.1454L12.6947 2.27734L20.3601 5.1454V11.076C20.3601 13.5389 19.7471 15.7792 18.5211 17.7969C17.2951 19.8146 14.5787 21.1553 12.6947 21.7218ZM12.6947 19.6801C14.1039 19.1454 16.4306 18.0273 17.352 16.4232C18.2734 14.819 18.7341 13.0366 18.7341 11.076V6.4822L12.6947 4.34332L6.42289 6.4822V11.076C6.42289 13.0366 6.8836 14.819 7.80501 16.4232C8.72641 18.0273 9.89173 19.0968 12.6947 19.6801Z"
                fill="#FDFCFC"
              />
              <g clip-path="url(#clip0_1512_33161)">
                <path
                  d="M16.125 13.3125C17.2483 13.3125 18.1328 14.2799 18.1328 15.4375V15.9375H18.2344C18.7741 15.9375 19.1875 16.4024 19.1875 16.9375V20.6875C19.1875 21.2226 18.7741 21.6875 18.2344 21.6875H14.0156C13.4759 21.6875 13.0625 21.2226 13.0625 20.6875V16.9375C13.0625 16.4024 13.4759 15.9375 14.0156 15.9375H14.1172V15.4375C14.1172 14.2799 15.0017 13.3125 16.125 13.3125ZM16.125 18.3125C15.8913 18.3125 15.6719 18.5226 15.6719 18.8125C15.6719 19.1024 15.8913 19.3125 16.125 19.3125C16.3587 19.3125 16.5781 19.1024 16.5781 18.8125C16.5781 18.5226 16.3587 18.3125 16.125 18.3125ZM16.125 14.5254C15.6769 14.5254 15.2852 14.9189 15.2852 15.4375V15.9375H16.9648V15.4375C16.9648 14.9189 16.5731 14.5254 16.125 14.5254Z"
                  fill="#FDFCFC"
                  stroke="#FDFCFC"
                  stroke-width="0.5"
                />
              </g>
              <path
                d="M24.5 17.8692V6.10169H26.6923V16.6925H30.7083V17.8692H24.5Z"
                fill="#FDFCFC"
              />
              <path
                d="M31.1635 17.8692L34.5005 6.10169H36.6152L39.9716 17.8692H37.8957L37.1778 14.9056H33.9767L33.22 17.8692H31.1635ZM34.2677 13.7288H36.8868L35.5675 8.42615L34.2677 13.7288Z"
                fill="#FDFCFC"
              />
              <path
                d="M40.9223 17.8692V13.7143L37.5272 6.10169H39.5643L41.97 11.7821L43.644 6.10169H45.7005L43.0176 13.7143V17.8692H40.9223Z"
                fill="#FDFCFC"
              />
              <path
                d="M46.2773 17.8692V6.10169H52.3693V7.32203H48.4697V11.2155H51.632V12.3777H48.4697V16.6925H52.4081V17.8692H46.2773Z"
                fill="#FDFCFC"
              />
              <path
                d="M53.2911 17.8692V6.10169H56.4534C57.5011 6.10169 58.3677 6.20823 59.0532 6.42131C59.7387 6.6247 60.2431 6.95884 60.5665 7.42373C60.9027 7.87893 61.0709 8.47942 61.0709 9.22518C61.0709 9.68039 61.0062 10.0969 60.8769 10.4746C60.7475 10.8426 60.5406 11.1574 60.256 11.4189C59.9715 11.6707 59.5964 11.8547 59.1308 11.9709L61.3619 17.8692H59.2472L57.1907 12.3487H55.4834V17.8692H53.2911ZM55.4834 11.1719H56.3176C56.9385 11.1719 57.4429 11.1138 57.8309 10.9976C58.2189 10.8814 58.5035 10.6828 58.6846 10.4019C58.8656 10.1211 58.9562 9.72881 58.9562 9.22518C58.9562 8.53753 58.788 8.04358 58.4517 7.74334C58.1155 7.43341 57.4494 7.27845 56.4534 7.27845H55.4834V11.1719Z"
                fill="#FDFCFC"
              />
              <path
                d="M69.6392 18C68.695 18 67.9384 17.8596 67.3693 17.5787C66.8002 17.2978 66.3863 16.9007 66.1276 16.3874C65.8819 15.8644 65.759 15.2542 65.759 14.5569C65.759 14.1598 65.8043 13.8111 65.8948 13.5109C65.9853 13.2107 66.1147 12.9492 66.2828 12.7264C66.4639 12.4939 66.6708 12.2954 66.9036 12.1308C67.1494 11.9564 67.4145 11.8015 67.6991 11.6659C67.1817 11.4044 66.7614 11.0654 66.438 10.6489C66.1147 10.2228 65.953 9.68523 65.953 9.03632C65.953 8.41646 66.0823 7.87893 66.341 7.42373C66.5997 6.96852 67.0007 6.61985 67.5439 6.37772C68.1 6.12591 68.7985 6 69.6392 6C70.4799 6 71.1654 6.12591 71.6957 6.37772C72.2389 6.61985 72.6399 6.96852 72.8986 7.42373C73.1573 7.87893 73.2866 8.41646 73.2866 9.03632C73.2866 9.69492 73.1249 10.2324 72.8016 10.6489C72.4911 11.0654 72.0708 11.4044 71.5405 11.6659C71.825 11.8015 72.0837 11.9564 72.3165 12.1308C72.5623 12.2954 72.7692 12.4939 72.9374 12.7264C73.1185 12.9492 73.2543 13.2107 73.3448 13.5109C73.4483 13.8111 73.5 14.1598 73.5 14.5569C73.5 15.2542 73.3707 15.8644 73.112 16.3874C72.8662 16.9007 72.4588 17.2978 71.8897 17.5787C71.3336 17.8596 70.5834 18 69.6392 18ZM69.6392 16.7651C70.1436 16.7651 70.5316 16.6683 70.8033 16.4746C71.0749 16.2809 71.256 16.0194 71.3465 15.6901C71.45 15.3608 71.5017 14.9927 71.5017 14.586C71.5017 14.2179 71.4435 13.8741 71.3271 13.5545C71.2236 13.2252 71.0361 12.9588 70.7645 12.7554C70.4928 12.5424 70.1178 12.4358 69.6392 12.4358C69.1606 12.4358 68.7791 12.5375 68.4945 12.7409C68.2229 12.9443 68.0289 13.2107 67.9125 13.54C67.7961 13.8596 67.7379 14.2082 67.7379 14.586C67.7379 14.9927 67.7896 15.3608 67.8931 15.6901C67.9966 16.0194 68.1841 16.2809 68.4557 16.4746C68.7403 16.6683 69.1348 16.7651 69.6392 16.7651ZM69.6392 10.954C70.079 10.9443 70.4088 10.8426 70.6286 10.6489C70.8615 10.4552 71.0231 10.2082 71.1137 9.90799C71.2042 9.59806 71.2495 9.27845 71.2495 8.94915C71.2495 8.46489 71.1331 8.05327 70.9003 7.71429C70.6674 7.3753 70.2471 7.20581 69.6392 7.20581C69.0313 7.20581 68.6045 7.3753 68.3587 7.71429C68.113 8.05327 67.9901 8.46489 67.9901 8.94915C67.9901 9.27845 68.0354 9.59806 68.1259 9.90799C68.2165 10.2082 68.3781 10.4552 68.6109 10.6489C68.8567 10.8426 69.1994 10.9443 69.6392 10.954Z"
                fill="#FDFCFC"
              />
              <defs>
                <clipPath id="clip0_1512_33161">
                  <rect
                    width="6.75"
                    height="9"
                    fill="white"
                    transform="translate(12.75 13)"
                  />
                </clipPath>
              </defs>
            </svg>