<svg width="49" height="42" viewBox="0 0 49 42" fill="none" xmlns="http://www.w3.org/2000/svg">
    <path d="M24.5 2C21.8484 2 19.3031 3.05422 17.4297 4.92891C15.5543 6.80435 14.5005 9.34779 14.5 12C14.5 14.6511 15.5547 17.1964 17.4297 19.0711C19.3031 20.9458 21.8484 22 24.5 22C27.1516 22 29.6969 20.9458 31.5703 19.0711C33.4453 17.1964 34.5 14.6511 34.5 12C34.5 9.34891 33.4453 6.80359 31.5703 4.92891C29.6969 3.05422 27.1516 2 24.5 2Z" fill="#FDFCFC" />
    <path d="M19.2581 11.9353C22.2195 10.6454 24.1938 9.79497 25.1809 9.38403C28.0027 8.21074 28.5883 8.00696 28.9708 8.00006C29.0549 7.99871 29.2422 8.0195 29.3644 8.11829C29.4659 8.20161 29.4945 8.31429 29.5088 8.39341C29.5215 8.47244 29.5389 8.65257 29.5247 8.79318C29.3723 10.3993 28.7105 14.2967 28.3741 16.0956C28.2328 16.8567 27.9519 17.1119 27.6805 17.1368C27.0901 17.1911 26.6426 16.7471 26.0713 16.3727C25.1778 15.7866 24.6731 15.4219 23.805 14.8501C22.802 14.1892 23.4527 13.826 24.024 13.2324C24.1732 13.0771 26.7727 10.7132 26.8219 10.4988C26.8283 10.4719 26.8346 10.372 26.7743 10.3193C26.7156 10.2664 26.6283 10.2845 26.5648 10.2988C26.4744 10.3191 25.0476 11.2631 22.2799 13.1305C21.8752 13.4089 21.5086 13.5446 21.1785 13.5375C20.8166 13.5297 20.1183 13.3324 19.5994 13.1639C18.9645 12.9571 18.4583 12.8477 18.5027 12.4965C18.5249 12.3137 18.7773 12.1266 19.2581 11.9353Z" fill="black"/>
    <path d="M7.436 31.452H4.7V39H3.428V31.452H0.68V30.384H7.436V31.452ZM11.0202 35.274C11.0202 35.042 10.9862 34.828 10.9182 34.632C10.8542 34.436 10.7582 34.266 10.6302 34.122C10.5022 33.978 10.3462 33.866 10.1622 33.786C9.97816 33.706 9.76616 33.666 9.52616 33.666C9.03416 33.666 8.64616 33.808 8.36216 34.092C8.08216 34.376 7.90416 34.77 7.82816 35.274H11.0202ZM11.9862 38.13C11.8422 38.298 11.6762 38.444 11.4882 38.568C11.3002 38.688 11.1002 38.786 10.8882 38.862C10.6762 38.938 10.4562 38.994 10.2282 39.03C10.0042 39.066 9.78216 39.084 9.56216 39.084C9.14216 39.084 8.75216 39.014 8.39216 38.874C8.03616 38.73 7.72616 38.522 7.46216 38.25C7.20216 37.974 6.99816 37.634 6.85016 37.23C6.70616 36.822 6.63416 36.354 6.63416 35.826C6.63416 35.402 6.70016 35.008 6.83216 34.644C6.96416 34.276 7.15216 33.956 7.39616 33.684C7.64416 33.412 7.94616 33.198 8.30216 33.042C8.65816 32.886 9.05816 32.808 9.50216 32.808C9.87416 32.808 10.2162 32.87 10.5282 32.994C10.8442 33.114 11.1162 33.29 11.3442 33.522C11.5722 33.754 11.7502 34.04 11.8782 34.38C12.0102 34.72 12.0762 35.108 12.0762 35.544C12.0762 35.724 12.0562 35.846 12.0162 35.91C11.9762 35.97 11.9022 36 11.7942 36H7.79816C7.81016 36.364 7.86216 36.682 7.95416 36.954C8.04616 37.222 8.17216 37.446 8.33216 37.626C8.49616 37.806 8.69016 37.94 8.91416 38.028C9.13816 38.116 9.38816 38.16 9.66416 38.16C9.92416 38.16 10.1482 38.13 10.3362 38.07C10.5282 38.01 10.6922 37.946 10.8282 37.878C10.9682 37.806 11.0842 37.74 11.1762 37.68C11.2722 37.62 11.3562 37.59 11.4282 37.59C11.5242 37.59 11.5982 37.626 11.6502 37.698L11.9862 38.13ZM14.5337 30.144V39H13.3577V30.144H14.5337ZM20.2428 35.274C20.2428 35.042 20.2088 34.828 20.1408 34.632C20.0768 34.436 19.9808 34.266 19.8528 34.122C19.7248 33.978 19.5688 33.866 19.3848 33.786C19.2008 33.706 18.9888 33.666 18.7488 33.666C18.2568 33.666 17.8688 33.808 17.5848 34.092C17.3048 34.376 17.1268 34.77 17.0508 35.274H20.2428ZM21.2088 38.13C21.0648 38.298 20.8988 38.444 20.7108 38.568C20.5228 38.688 20.3228 38.786 20.1108 38.862C19.8988 38.938 19.6788 38.994 19.4508 39.03C19.2268 39.066 19.0048 39.084 18.7848 39.084C18.3648 39.084 17.9748 39.014 17.6148 38.874C17.2588 38.73 16.9488 38.522 16.6848 38.25C16.4248 37.974 16.2208 37.634 16.0728 37.23C15.9288 36.822 15.8568 36.354 15.8568 35.826C15.8568 35.402 15.9228 35.008 16.0548 34.644C16.1868 34.276 16.3748 33.956 16.6188 33.684C16.8668 33.412 17.1688 33.198 17.5248 33.042C17.8808 32.886 18.2808 32.808 18.7248 32.808C19.0968 32.808 19.4388 32.87 19.7508 32.994C20.0668 33.114 20.3388 33.29 20.5668 33.522C20.7948 33.754 20.9728 34.04 21.1008 34.38C21.2328 34.72 21.2988 35.108 21.2988 35.544C21.2988 35.724 21.2788 35.846 21.2388 35.91C21.1988 35.97 21.1248 36 21.0168 36H17.0208C17.0328 36.364 17.0848 36.682 17.1768 36.954C17.2688 37.222 17.3948 37.446 17.5548 37.626C17.7188 37.806 17.9128 37.94 18.1368 38.028C18.3608 38.116 18.6108 38.16 18.8868 38.16C19.1468 38.16 19.3708 38.13 19.5588 38.07C19.7508 38.01 19.9148 37.946 20.0508 37.878C20.1908 37.806 20.3068 37.74 20.3988 37.68C20.4948 37.62 20.5788 37.59 20.6508 37.59C20.7468 37.59 20.8208 37.626 20.8728 37.698L21.2088 38.13ZM24.6984 35.958C24.9064 35.958 25.0884 35.93 25.2444 35.874C25.4044 35.818 25.5364 35.74 25.6404 35.64C25.7484 35.536 25.8284 35.412 25.8804 35.268C25.9364 35.124 25.9644 34.966 25.9644 34.794C25.9644 34.442 25.8564 34.162 25.6404 33.954C25.4284 33.742 25.1144 33.636 24.6984 33.636C24.2864 33.636 23.9724 33.742 23.7564 33.954C23.5444 34.162 23.4384 34.442 23.4384 34.794C23.4384 34.966 23.4644 35.124 23.5164 35.268C23.5724 35.408 23.6524 35.53 23.7564 35.634C23.8644 35.734 23.9964 35.814 24.1524 35.874C24.3124 35.93 24.4944 35.958 24.6984 35.958ZM26.5644 39.318C26.5644 39.174 26.5244 39.06 26.4444 38.976C26.3644 38.888 26.2544 38.82 26.1144 38.772C25.9784 38.72 25.8184 38.684 25.6344 38.664C25.4504 38.64 25.2564 38.622 25.0524 38.61C24.8524 38.598 24.6464 38.588 24.4344 38.58C24.2224 38.568 24.0184 38.548 23.8224 38.52C23.6144 38.624 23.4424 38.75 23.3064 38.898C23.1744 39.046 23.1084 39.22 23.1084 39.42C23.1084 39.548 23.1404 39.668 23.2044 39.78C23.2724 39.892 23.3744 39.988 23.5104 40.068C23.6504 40.152 23.8244 40.216 24.0324 40.26C24.2444 40.308 24.4964 40.332 24.7884 40.332C25.0764 40.332 25.3304 40.306 25.5504 40.254C25.7704 40.206 25.9544 40.136 26.1024 40.044C26.2544 39.956 26.3684 39.85 26.4444 39.726C26.5244 39.602 26.5644 39.466 26.5644 39.318ZM27.7524 33.132V33.57C27.7524 33.714 27.6624 33.804 27.4824 33.84L26.8284 33.936C26.8844 34.06 26.9284 34.192 26.9604 34.332C26.9924 34.468 27.0084 34.612 27.0084 34.764C27.0084 35.064 26.9504 35.336 26.8344 35.58C26.7184 35.82 26.5584 36.026 26.3544 36.198C26.1504 36.37 25.9064 36.502 25.6224 36.594C25.3424 36.686 25.0344 36.732 24.6984 36.732C24.4224 36.732 24.1644 36.702 23.9244 36.642C23.8044 36.714 23.7124 36.794 23.6484 36.882C23.5884 36.966 23.5584 37.05 23.5584 37.134C23.5584 37.274 23.6164 37.378 23.7324 37.446C23.8524 37.514 24.0064 37.564 24.1944 37.596C24.3864 37.624 24.6044 37.642 24.8484 37.65C25.0964 37.658 25.3464 37.672 25.5984 37.692C25.8544 37.708 26.1044 37.74 26.3484 37.788C26.5964 37.832 26.8144 37.906 27.0024 38.01C27.1944 38.11 27.3484 38.25 27.4644 38.43C27.5844 38.606 27.6444 38.836 27.6444 39.12C27.6444 39.384 27.5784 39.64 27.4464 39.888C27.3184 40.136 27.1304 40.356 26.8824 40.548C26.6344 40.74 26.3324 40.894 25.9764 41.01C25.6204 41.126 25.2164 41.184 24.7644 41.184C24.3124 41.184 23.9184 41.14 23.5824 41.052C23.2504 40.964 22.9724 40.846 22.7484 40.698C22.5284 40.55 22.3624 40.378 22.2504 40.182C22.1424 39.986 22.0884 39.782 22.0884 39.57C22.0884 39.274 22.1804 39.024 22.3644 38.82C22.5484 38.612 22.8024 38.45 23.1264 38.334C22.9504 38.254 22.8104 38.146 22.7064 38.01C22.6024 37.87 22.5504 37.686 22.5504 37.458C22.5504 37.37 22.5664 37.28 22.5984 37.188C22.6304 37.092 22.6784 36.998 22.7424 36.906C22.8104 36.81 22.8924 36.72 22.9884 36.636C23.0884 36.552 23.2024 36.476 23.3304 36.408C23.0304 36.24 22.7944 36.018 22.6224 35.742C22.4504 35.462 22.3644 35.136 22.3644 34.764C22.3644 34.464 22.4224 34.194 22.5384 33.954C22.6544 33.714 22.8144 33.508 23.0184 33.336C23.2264 33.164 23.4724 33.032 23.7564 32.94C24.0444 32.848 24.3584 32.802 24.6984 32.802C25.2264 32.802 25.6804 32.912 26.0604 33.132H27.7524ZM29.9299 34.074C30.1259 33.674 30.3619 33.36 30.6379 33.132C30.9139 32.904 31.2459 32.79 31.6339 32.79C31.7659 32.79 31.8899 32.806 32.0059 32.838C32.1259 32.866 32.2299 32.91 32.3179 32.97L32.2399 33.852C32.2119 33.96 32.1459 34.014 32.0419 34.014C31.9859 34.014 31.9019 34.004 31.7899 33.984C31.6779 33.96 31.5579 33.948 31.4299 33.948C31.2419 33.948 31.0759 33.976 30.9319 34.032C30.7879 34.084 30.6579 34.164 30.5419 34.272C30.4299 34.376 30.3299 34.506 30.2419 34.662C30.1539 34.814 30.0719 34.988 29.9959 35.184V39H28.8259V32.904H29.4979C29.6259 32.904 29.7119 32.928 29.7559 32.976C29.8039 33.02 29.8379 33.1 29.8579 33.216L29.9299 34.074ZM36.4027 36.294C35.9267 36.31 35.5227 36.348 35.1907 36.408C34.8587 36.464 34.5887 36.54 34.3807 36.636C34.1727 36.732 34.0227 36.846 33.9307 36.978C33.8387 37.106 33.7927 37.25 33.7927 37.41C33.7927 37.562 33.8167 37.694 33.8647 37.806C33.9167 37.914 33.9847 38.004 34.0687 38.076C34.1567 38.144 34.2587 38.194 34.3747 38.226C34.4907 38.258 34.6167 38.274 34.7527 38.274C34.9327 38.274 35.0967 38.256 35.2447 38.22C35.3967 38.184 35.5387 38.134 35.6707 38.07C35.8027 38.002 35.9287 37.92 36.0487 37.824C36.1687 37.728 36.2867 37.618 36.4027 37.494V36.294ZM32.9707 33.756C33.3107 33.432 33.6787 33.19 34.0747 33.03C34.4747 32.87 34.9127 32.79 35.3887 32.79C35.7367 32.79 36.0447 32.848 36.3127 32.964C36.5807 33.076 36.8067 33.234 36.9907 33.438C37.1747 33.642 37.3127 33.886 37.4047 34.17C37.5007 34.454 37.5487 34.768 37.5487 35.112V39H37.0267C36.9107 39 36.8227 38.982 36.7627 38.946C36.7027 38.906 36.6547 38.834 36.6187 38.73L36.4927 38.196C36.3367 38.34 36.1827 38.468 36.0307 38.58C35.8787 38.688 35.7187 38.782 35.5507 38.862C35.3867 38.938 35.2107 38.996 35.0227 39.036C34.8347 39.076 34.6267 39.096 34.3987 39.096C34.1587 39.096 33.9327 39.064 33.7207 39C33.5127 38.932 33.3307 38.83 33.1747 38.694C33.0187 38.558 32.8947 38.388 32.8027 38.184C32.7147 37.98 32.6707 37.742 32.6707 37.47C32.6707 37.23 32.7347 37 32.8627 36.78C32.9947 36.556 33.2067 36.356 33.4987 36.18C33.7947 36.004 34.1787 35.86 34.6507 35.748C35.1267 35.636 35.7107 35.572 36.4027 35.556V35.112C36.4027 34.652 36.3047 34.308 36.1087 34.08C35.9127 33.852 35.6247 33.738 35.2447 33.738C34.9887 33.738 34.7727 33.77 34.5967 33.834C34.4247 33.898 34.2747 33.97 34.1467 34.05C34.0227 34.126 33.9127 34.196 33.8167 34.26C33.7247 34.324 33.6287 34.356 33.5287 34.356C33.4487 34.356 33.3787 34.334 33.3187 34.29C33.2627 34.246 33.2167 34.194 33.1807 34.134L32.9707 33.756ZM39.115 39V32.904H39.817C39.981 32.904 40.083 32.982 40.123 33.138L40.207 33.72C40.431 33.452 40.679 33.234 40.951 33.066C41.227 32.894 41.549 32.808 41.917 32.808C42.321 32.808 42.649 32.92 42.901 33.144C43.153 33.364 43.337 33.664 43.453 34.044C43.541 33.828 43.655 33.642 43.795 33.486C43.935 33.33 44.091 33.202 44.263 33.102C44.435 33.002 44.617 32.928 44.809 32.88C45.005 32.832 45.203 32.808 45.403 32.808C45.727 32.808 46.015 32.86 46.267 32.964C46.523 33.064 46.739 33.212 46.915 33.408C47.091 33.604 47.225 33.846 47.317 34.134C47.409 34.422 47.455 34.75 47.455 35.118V39H46.279V35.118C46.279 34.662 46.179 34.318 45.979 34.086C45.783 33.854 45.495 33.738 45.115 33.738C44.947 33.738 44.787 33.768 44.635 33.828C44.483 33.884 44.349 33.97 44.233 34.086C44.121 34.202 44.031 34.346 43.963 34.518C43.899 34.69 43.867 34.89 43.867 35.118V39H42.691V35.118C42.691 34.646 42.597 34.298 42.409 34.074C42.221 33.85 41.945 33.738 41.581 33.738C41.329 33.738 41.095 33.804 40.879 33.936C40.663 34.068 40.465 34.248 40.285 34.476V39H39.115Z" fill="#FDFCFC" />
</svg>
