<svg
          width="25"
          height="24"
          viewBox="0 0 25 24"
          fill="none"
          xmlns="http://www.w3.org/2000/svg"
        >
          <g clip-path="url(#clip0_1591_28721)">
            <path
              d="M17.166 13C15.966 13 14.096 13.34 12.666 14C11.236 13.33 9.36602 13 8.16602 13C5.99602 13 1.66602 14.08 1.66602 16.25V19H23.666V16.25C23.666 14.08 19.336 13 17.166 13ZM13.166 17.5H3.16602V16.25C3.16602 15.71 5.72602 14.5 8.16602 14.5C10.606 14.5 13.166 15.71 13.166 16.25V17.5ZM22.166 17.5H14.666V16.25C14.666 15.79 14.466 15.39 14.146 15.03C15.026 14.73 16.106 14.5 17.166 14.5C19.606 14.5 22.166 15.71 22.166 16.25V17.5ZM8.16602 12C10.096 12 11.666 10.43 11.666 8.5C11.666 6.57 10.096 5 8.16602 5C6.23602 5 4.66602 6.57 4.66602 8.5C4.66602 10.43 6.23602 12 8.16602 12ZM8.16602 6.5C9.26602 6.5 10.166 7.4 10.166 8.5C10.166 9.6 9.26602 10.5 8.16602 10.5C7.06602 10.5 6.16602 9.6 6.16602 8.5C6.16602 7.4 7.06602 6.5 8.16602 6.5ZM17.166 12C19.096 12 20.666 10.43 20.666 8.5C20.666 6.57 19.096 5 17.166 5C15.236 5 13.666 6.57 13.666 8.5C13.666 10.43 15.236 12 17.166 12ZM17.166 6.5C18.266 6.5 19.166 7.4 19.166 8.5C19.166 9.6 18.266 10.5 17.166 10.5C16.066 10.5 15.166 9.6 15.166 8.5C15.166 7.4 16.066 6.5 17.166 6.5Z"
              fill="#0E0C0C"
            />
          </g>
          <defs>
            <clipPath id="clip0_1591_28721">
              <rect
                width="24"
                height="24"
                fill="white"
                transform="translate(0.666016)"
              />
            </clipPath>
          </defs>
        </svg>