<svg width="24" height="24" viewBox="0 0 24 24" fill="none" xmlns="http://www.w3.org/2000/svg">
    <path d="M12.7 4.71164L19.3 11.3116C19.4 11.4116 19.471 11.52 19.513 11.6366C19.5543 11.7533 19.575 11.8783 19.575 12.0116C19.575 12.145 19.5543 12.27 19.513 12.3866C19.471 12.5033 19.4 12.6116 19.3 12.7116L12.7 19.3116C12.5166 19.495 12.2876 19.591 12.0129 19.5996C11.7376 19.6076 11.5 19.5116 11.3 19.3116C11.1 19.1283 10.9956 18.8993 10.9869 18.6246C10.9789 18.3493 11.075 18.1116 11.275 17.9116L16.175 13.0116L4.99995 13.0116C4.71662 13.0116 4.47895 12.916 4.28695 12.7246C4.09562 12.5326 3.99995 12.295 3.99995 12.0116C3.99995 11.7283 4.09562 11.491 4.28695 11.2996C4.47895 11.1076 4.71662 11.0116 4.99995 11.0116L16.175 11.0116L11.275 6.11164C11.0916 5.9283 10.9956 5.69497 10.9869 5.41164C10.9789 5.1283 11.075 4.89497 11.275 4.71164C11.4583 4.51164 11.6916 4.41164 11.9749 4.41164C12.2583 4.41164 12.5 4.51164 12.7 4.71164Z" fill="#0E0C0C"/>
</svg>
