<svg
        width="32"
        height="32"
        viewBox="0 0 32 32"
        fill="none"
        xmlns="http://www.w3.org/2000/svg"
>
    <path
            d="M16.9334 6.28202L25.7334 15.082C25.8668 15.2154 25.9614 15.3598 26.0174 15.5154C26.0725 15.6709 26.1001 15.8376 26.1001 16.0154C26.1001 16.1931 26.0725 16.3598 26.0174 16.5154C25.9614 16.6709 25.8668 16.8154 25.7334 16.9487L16.9334 25.7487C16.689 25.9931 16.3837 26.1211 16.0174 26.1327C15.6503 26.1434 15.3334 26.0154 15.0668 25.7487C14.8001 25.5042 14.661 25.1989 14.6494 24.8327C14.6388 24.4656 14.7668 24.1487 15.0334 23.882L21.5668 17.3487H6.66676C6.28898 17.3487 5.9721 17.2211 5.7161 16.966C5.46099 16.71 5.33343 16.3931 5.33343 16.0154C5.33343 15.6376 5.46099 15.3211 5.7161 15.066C5.9721 14.81 6.28898 14.682 6.66676 14.682L21.5668 14.682L15.0334 8.14869C14.789 7.90424 14.661 7.59313 14.6494 7.21535C14.6388 6.83757 14.7668 6.52646 15.0334 6.28202C15.2779 6.01535 15.589 5.88202 15.9668 5.88202C16.3445 5.88202 16.6668 6.01535 16.9334 6.28202Z"
            fill="#0E0C0C"
    />
</svg>
